<svg xmlns="http://www.w3.org/2000/svg" xmlns:xlink="http://www.w3.org/1999/xlink" width="512" zoomAndPan="magnify" viewBox="0 0 384 383.999986" height="512" preserveAspectRatio="xMidYMid meet" version="1.0"><defs><clipPath id="babf0c66b0"><path d="M 24.816406 9.917969 L 359.316406 9.917969 L 359.316406 374.417969 L 24.816406 374.417969 Z M 24.816406 9.917969 " clip-rule="nonzero"/></clipPath></defs><rect x="-38.4" width="460.8" fill="#ffffff" y="-38.399999" height="460.799983" fill-opacity="1"/><rect x="-38.4" width="460.8" fill="#2f2e2c" y="-38.399999" height="460.799983" fill-opacity="1"/><g clip-path="url(#babf0c66b0)"><rect x="-38.4" width="460.8" fill="#362f2a" y="-38.399999" height="460.799983" fill-opacity="1"/></g><path fill="#ffffff" d="M 211.085938 56.644531 C 211.035156 56.59375 210.984375 56.59375 210.941406 56.542969 C 209.175781 55.269531 207.410156 54.039062 205.542969 52.910156 C 204.660156 52.367188 203.679688 51.832031 202.75 51.289062 C 201.820312 50.753906 200.839844 50.261719 199.910156 49.820312 L 198.832031 49.28125 C 189.851562 45.0625 179.847656 42.703125 169.300781 42.703125 L 169.25 42.703125 C 130.847656 42.703125 99.652344 73.851562 99.652344 112.300781 L 99.652344 147.421875 C 119.222656 147.421875 135.113281 131.527344 135.113281 111.960938 L 135.113281 86.015625 C 135.113281 76.546875 138.941406 68.015625 145.121094 61.882812 C 151.839844 55.160156 161.351562 51.242188 171.804688 51.972656 C 173.425781 52.066406 174.945312 52.3125 176.464844 52.660156 C 176.90625 52.757812 177.347656 52.855469 177.738281 52.953125 C 178.179688 53.054688 178.621094 53.199219 179.011719 53.347656 C 180.726562 53.886719 182.394531 54.523438 183.964844 55.355469 C 184.753906 55.695312 185.535156 56.136719 186.316406 56.628906 C 186.953125 56.96875 187.589844 57.367188 188.183594 57.859375 C 188.429688 58.003906 188.675781 58.199219 188.921875 58.351562 C 189.460938 58.742188 190 59.183594 190.539062 59.675781 C 190.683594 59.726562 190.835938 59.871094 190.929688 59.972656 C 191.472656 60.414062 192.007812 60.90625 192.550781 61.441406 C 193.875 62.714844 195.105469 64.136719 196.234375 65.65625 L 196.480469 65.953125 C 197.019531 66.742188 197.605469 67.574219 198.097656 68.40625 C 201.484375 73.949219 203.445312 80.523438 203.445312 87.386719 L 203.445312 285.394531 C 203.445312 292.0625 201.535156 298.246094 198.242188 303.492188 C 201.96875 308.253906 207.070312 311.730469 212.8125 313.445312 C 228.707031 300.695312 238.90625 281.074219 238.90625 259.097656 L 238.90625 112.296875 C 238.90625 89.539062 227.96875 69.328125 211.097656 56.625 Z M 168.21875 319.59375 C 149.53125 319.050781 135.109375 302.71875 135.109375 284.03125 L 135.109375 259.457031 C 135.109375 239.890625 119.214844 223.996094 99.648438 223.996094 L 99.648438 259.117188 C 99.648438 297.574219 130.839844 328.765625 169.246094 328.765625 L 169.296875 328.765625 C 175.914062 328.765625 182.34375 327.832031 188.421875 326.066406 C 184.253906 324.054688 180.234375 321.605469 176.5 318.8125 C 173.851562 319.398438 171.054688 319.695312 168.210938 319.597656 Z M 168.21875 319.59375 " fill-opacity="1" fill-rule="nonzero"/><path fill="#ffffff" d="M 221.191406 42.710938 L 221.140625 42.710938 C 214.519531 42.710938 208.140625 43.644531 202.058594 45.410156 C 206.277344 47.46875 210.246094 49.921875 213.980469 52.664062 C 215.5 52.324219 217.066406 52.078125 218.6875 51.976562 C 229.082031 51.242188 238.601562 55.167969 245.324219 61.886719 C 251.5 68.023438 255.328125 76.550781 255.328125 86.019531 L 255.328125 111.96875 C 255.328125 131.535156 271.21875 147.429688 290.789062 147.429688 L 290.789062 112.308594 C 290.789062 73.851562 259.59375 42.710938 221.191406 42.710938 Z M 265.722656 234.394531 C 259.300781 240.816406 255.328125 249.691406 255.328125 259.457031 L 255.328125 284.03125 C 255.328125 302.71875 240.910156 319.050781 222.21875 319.59375 C 219.375 319.6875 216.578125 319.398438 213.929688 318.804688 C 204.804688 316.84375 197.058594 311.203125 192.25 303.550781 C 188.914062 298.304688 186.996094 292.070312 186.996094 285.398438 L 186.996094 87.394531 C 186.996094 80.574219 188.90625 74.097656 192.25 68.558594 C 188.617188 63.601562 183.46875 59.875 177.585938 58.0625 C 161.691406 70.8125 151.542969 90.382812 151.542969 112.308594 L 151.542969 259.113281 C 151.542969 281.085938 161.742188 300.707031 177.636719 313.460938 C 184.746094 319.195312 192.988281 323.515625 202.015625 326.066406 C 208.097656 327.832031 214.519531 328.765625 221.140625 328.765625 L 221.191406 328.765625 C 259.59375 328.765625 290.789062 297.574219 290.789062 259.117188 L 290.789062 223.996094 C 280.980469 223.996094 272.148438 227.96875 265.722656 234.394531 Z M 265.722656 234.394531 " fill-opacity="1" fill-rule="nonzero"/><path fill="#ffffff" d="M 158.976562 203.472656 L 158.976562 168.011719 L 226.0625 168.011719 L 226.0625 203.472656 Z M 158.976562 203.472656 " fill-opacity="1" fill-rule="nonzero"/></svg>